<?xml version="1.0" encoding="UTF-8"?>
<svg id="Layer_2" data-name="Layer 2" xmlns="http://www.w3.org/2000/svg" viewBox="0 0 156.71 147.04">
  <defs>
    <style>
      .cls-1 {
        fill: #ffc107;
      }

      .cls-1, .cls-2, .cls-3, .cls-4, .cls-5, .cls-6, .cls-7 {
        fill-rule: evenodd;
      }

      .cls-2 {
        fill: #757575;
      }

      .cls-3 {
        fill: #686868;
      }

      .cls-4 {
        fill: #4d4d4d;
      }

      .cls-8 {
        fill: #fff;
      }

      .cls-9 {
        fill: #fcd462;
      }

      .cls-5 {
        fill: #777;
      }

      .cls-6 {
        fill: #ff9d05;
      }

      .cls-7 {
        fill: #8d8d8d;
      }

      .cls-10 {
        fill: #fce08d;
      }
    </style>
  </defs>
  <g id="Layer_1-2" data-name="Layer 1">
    <g>
      <g>
        <path class="cls-4" d="M96.85,78.23c-17.89,7.33-32.89,18.08-43.81,30.53-1.58.65-2.43,1.09-2.44,1.1-1.14.58-2.53.13-3.11-1.01-.02-.05-.05-.09-.07-.14l-14.59-33.98h.1s61.86.84,61.86.84c.31.01.59-.05.86-.16l1.2,2.81Z"/>
        <path class="cls-4" d="M153.19,64.14c.02.29-.01.56-.1.83-.02.1-.06.19-.1.28-.06.14-.15.28-.23.4-.07.09-.12.16-.19.23-.03.02-.05.04-.07.07-.07.07-.13.12-.2.18-.03.02-.07.06-.11.08-.06.04-.14.09-.21.12-.04.03-.09.06-.13.07-.05.03-.11.06-.17.07-.05.02-.11.04-.17.06-.45.16-2.1.78-4.5,2h-.01c-13.68-.26-28.24,1.95-42.77,6.92-2.51.86-4.97,1.79-7.39,2.78l-1.2-2.81s.05-.01.08-.03l-.11-.25c.27-.12.5-.3.7-.52l42-45.43,14.68,34.19c.04.09.07.18.1.27.01.03.01.06.03.09v.04c.03.12.05.23.06.35Z"/>
      </g>
      <g>
        <g>
          <path class="cls-3" d="M93.06,72.25l-61.85-1.27h-.1s-.67-1.58-.67-1.58c-.5-1.18.06-2.54,1.24-3.03l46.95-19.77,1.52-.64,2.35-.99,2.36-.99s.04-.02.06-.03c0,0,.01,0,0-.01l48.39-20.37c1.18-.5,2.53.06,3.03,1.24l.58,1.37-42.32,45.14c-.2.22-.44.39-.71.51l.11.25s-.05.02-.08.03c-.27.11-.55.17-.86.15Z"/>
          <path class="cls-3" d="M150.18,63.46s-.04.02-.06.03c-.04.01-.07.02-.11.04.06-.01.12-.04.17-.07Z"/>
          <g>
            <path class="cls-9" d="M13.33,126.31c2.75-.21,5.46.69,7.54,2.49,2.01,1.74,3.36,4.24,3.57,7.1.21,2.86-.76,5.53-2.49,7.54-1.73,2.01-4.24,3.36-7.1,3.57s-5.53-.76-7.54-2.49c-2.01-1.73-3.36-4.24-3.57-7.1-.21-2.86.76-5.53,2.49-7.54,1.8-2.09,4.35-3.37,7.1-3.57Z"/>
            <path class="cls-1" d="M13.65,64.46c1.27-.09,2.38.86,2.48,2.14l2.14,29c.09,1.27-.86,2.38-2.14,2.48h0s-9.7.72-9.7.72c-1.27.09-2.38-.86-2.48-2.14h0s-2.12-28.71-2.12-28.71c-.09-1.28.86-2.38,2.14-2.48,6.68-.49,9.11-.97,9.68-1.01h0Z"/>
            <path class="cls-6" d="M1.3,126.87c-1.08-4.94-1.49-10.01-1.22-15.07.37-6.69,1.86-11.8,2.85-14.53.37-1.05,1.04-1.96,1.92-2.63.89-.67,1.95-1.07,3.06-1.15l5.96-.44c1.14-.08,2.23.16,3.19.69.97.54,1.77,1.34,2.29,2.32,1.38,2.55,3.61,7.38,4.95,13.95,1.01,4.96,1.35,10.03,1.01,15.08-.19,2.86-2.45,5.15-5.32,5.36l-12.66.93c-2.86.21-5.44-1.72-6.04-4.52h0Z"/>
            <path class="cls-8" d="M9.44,104.96c-.07-1.28.92-2.37,2.19-2.43,1.24-.06,2.3.86,2.42,2.09l1.08,14.61c.09,1.27-.86,2.38-2.14,2.48s-2.38-.86-2.48-2.14l-1.08-14.61Z"/>
          </g>
          <path class="cls-9" d="M74.89,26.93c3.57-1.5,7.21-1.98,10.22-1.54,3.41.5,6.1,2.17,7.24,4.89,1.15,2.72.46,5.81-1.56,8.59-1.79,2.46-4.67,4.73-8.24,6.23s-7.21,1.98-10.22,1.54c-3.41-.5-6.1-2.17-7.24-4.89-1.15-2.72-.46-5.81,1.56-8.6,1.79-2.46,4.67-4.73,8.24-6.23Z"/>
          <path class="cls-10" d="M92.35,30.28c-1.15-2.72-3.83-4.39-7.24-4.89-3.01-.44-6.65.04-10.22,1.54l7.65,18.17c.82-.35,1.61-.73,2.36-1.16,2.49-1.4,4.51-3.19,5.89-5.08,2.03-2.79,2.71-5.87,1.56-8.59h0Z"/>
          <path class="cls-7" d="M156.09,5.72l-19.17,20.45-42.32,45.14c-.2.22-.44.39-.71.51-.03.01-.05.02-.08.04l-11.17-26.51-.1-.24c.45-.19.88-.39,1.31-.6.34-.17.67-.35.99-.53.02-.01.04-.02.06-.03,0,0,.01,0,0-.01.26-.14.51-.3.76-.44.05-.03.1-.06.14-.09.29-.18.56-.36.83-.55.06-.03.12-.08.17-.11.23-.17.46-.34.69-.52.26-.2.52-.41.77-.63.36-.31.7-.63,1.03-.96.14-.13.26-.27.38-.4.14-.15.27-.29.39-.44.12-.14.25-.29.35-.43.13-.16.26-.32.37-.48,2.03-2.79,2.71-5.88,1.56-8.6-1.14-2.73-3.83-4.39-7.23-4.89-2.98-.44-6.6.04-10.14,1.5-.03.01-.05.02-.08.04L63.73.43l-.11-.25c.3-.13.62-.19.94-.18l89.9,1.84c.56.02,1.11.23,1.52.63.93.87.99,2.33.11,3.26Z"/>
          <g>
            <path class="cls-3" d="M95.1,74.92c-17.94,7.21-33.02,17.85-44.03,30.22-1.58.63-2.43,1.07-2.44,1.08-1.14.57-2.53.12-3.1-1.03-.02-.05-.05-.09-.07-.14l-14.35-34.08h.1s61.85,1.28,61.85,1.28c.31.01.59-.04.86-.15l1.18,2.82Z"/>
            <path class="cls-5" d="M151.53,61.23c.02.29-.02.56-.11.82-.02.1-.06.19-.11.28-.06.14-.15.27-.23.4-.07.09-.12.16-.19.23-.03.02-.05.04-.07.07-.07.07-.13.12-.2.18-.03.02-.07.06-.11.08-.06.04-.14.09-.21.11-.04.03-.09.06-.13.07-.05.03-.11.06-.17.07-.05.02-.11.04-.17.06-.45.16-2.1.77-4.51,1.97h-.01c-13.67-.36-28.26,1.75-42.81,6.62-2.52.84-4.98,1.75-7.4,2.72l-1.18-2.82s.05-.01.08-.03l-.11-.25c.27-.12.5-.3.71-.51l42.32-45.14,14.44,34.29c.04.09.07.18.1.27.01.03.01.06.03.09v.04c.03.12.05.23.05.36Z"/>
          </g>
          <path class="cls-5" d="M93.89,71.83l.11.25s-.05.02-.08.03l-.11-.24s.05-.02.08-.04Z"/>
        </g>
        <path class="cls-2" d="M94,72.07s-.05.02-.08.03c-.27.11-.55.17-.86.15l-61.85-1.27h-.1s-13.82-.28-13.82-.28l-14.11-.29c-1.28-.03-2.28-1.07-2.26-2.36,0-.56.23-1.11.62-1.52l.8-.86L63.03.94c.19-.22.43-.38.7-.51.03-.02.06-.03.09-.05l11.16,26.51.11.25s-.05.02-.08.04c-3.54,1.51-6.39,3.76-8.16,6.2-2.03,2.79-2.71,5.88-1.57,8.6.26.62.6,1.18,1.01,1.7.02.02.03.03.04.05,1.4,1.69,3.58,2.76,6.19,3.14,1.85.27,3.94.19,6.1-.26.55-.1,1.09-.24,1.63-.4.8-.23,1.6-.5,2.39-.85.03-.01.06-.02.09-.04l11.16,26.51.11.25Z"/>
      </g>
    </g>
  </g>
</svg>